<svg viewBox="0 0 135 40" xmlns="http://www.w3.org/2000/svg" xmlns:xlink="http://www.w3.org/1999/xlink"><linearGradient id="a" gradientUnits="userSpaceOnUse" x1="21.8" x2="5.02" y1="8.71" y2="25.49"><stop offset="0" stop-color="#00a0ff"/><stop offset=".01" stop-color="#00a1ff"/><stop offset=".26" stop-color="#00beff"/><stop offset=".51" stop-color="#00d2ff"/><stop offset=".76" stop-color="#00dfff"/><stop offset="1" stop-color="#00e3ff"/></linearGradient><linearGradient id="b" gradientUnits="userSpaceOnUse" x1="33.83" x2="9.64" y1="20" y2="20"><stop offset="0" stop-color="#ffe000"/><stop offset=".41" stop-color="#ffbd00"/><stop offset=".78" stop-color="#ffa500"/><stop offset="1" stop-color="#ff9c00"/></linearGradient><linearGradient id="c" gradientUnits="userSpaceOnUse" x1="24.83" x2="2.07" y1="22.3" y2="45.05"><stop offset="0" stop-color="#ff3a44"/><stop offset="1" stop-color="#c31162"/></linearGradient><linearGradient id="d" gradientUnits="userSpaceOnUse" x1="7.3" x2="17.46" y1=".18" y2="10.34"><stop offset="0" stop-color="#32a071"/><stop offset=".07" stop-color="#2da771"/><stop offset=".48" stop-color="#15cf74"/><stop offset=".8" stop-color="#06e775"/><stop offset="1" stop-color="#00f076"/></linearGradient><rect height="40" rx="5" width="135"/><path d="m130 .8a4.2 4.2 0 0 1 4.2 4.2v30a4.2 4.2 0 0 1 -4.2 4.2h-125a4.2 4.2 0 0 1 -4.2-4.2v-30a4.2 4.2 0 0 1 4.2-4.2zm0-.8h-125a5 5 0 0 0 -5 5v30a5 5 0 0 0 5 5h125a5 5 0 0 0 5-5v-30a5 5 0 0 0 -5-5z" fill="#a6a6a6"/><path d="m47.42 10.24a2.75 2.75 0 0 1 -.75 2 2.88 2.88 0 0 1 -2.2.89 3.15 3.15 0 0 1 -2.21-5.37 3 3 0 0 1 2.21-.9 3.08 3.08 0 0 1 1.23.25 2.61 2.61 0 0 1 .94.67l-.53.53a2 2 0 0 0 -1.64-.71 2.32 2.32 0 0 0 -2.33 2.31v.09a2.36 2.36 0 0 0 4 1.73 1.85 1.85 0 0 0 .5-1.22h-2.17v-.72h2.91a2.28 2.28 0 0 1 .04.45zm4.58-2.5h-2.7v1.9h2.46v.72h-2.46v1.9h2.7v.74h-3.5v-6h3.5zm3.28 5.26h-.77v-5.26h-1.68v-.74h4.17v.74h-1.72zm4.66 0v-6h.77v6zm4.19 0h-.77v-5.26h-1.68v-.74h4.12v.74h-1.67zm9.48-.78a3.12 3.12 0 0 1 -4.4 0 3.24 3.24 0 0 1 0-4.45 3.1 3.1 0 0 1 4.38 0 3.24 3.24 0 0 1 .02 4.45zm-3.83-.5a2.31 2.31 0 0 0 3.26 0 2.55 2.55 0 0 0 0-3.44 2.31 2.31 0 0 0 -3.26 0 2.55 2.55 0 0 0 0 3.44zm5.8 1.28v-6h.94l2.92 4.67v-4.67h.77v6h-.8l-3-4.89v4.89z" fill="#fff" stroke="#fff" stroke-miterlimit="10" stroke-width=".2"/><path d="m68.14 21.75a4.25 4.25 0 1 0 4.27 4.25 4.19 4.19 0 0 0 -4.13-4.25zm0 6.83a2.58 2.58 0 1 1 2.39-2.75.91.91 0 0 1 0 .17 2.46 2.46 0 0 1 -2.34 2.58zm-9.31-6.83a4.25 4.25 0 1 0 4.26 4.25 4.19 4.19 0 0 0 -4.09-4.25h-.13zm0 6.83a2.58 2.58 0 1 1 2.38-2.76 1.09 1.09 0 0 1 0 .18 2.46 2.46 0 0 1 -2.34 2.58h-.05zm-11.09-5.52v1.8h4.32a3.77 3.77 0 0 1 -1 2.27 4.41 4.41 0 0 1 -3.33 1.32 4.8 4.8 0 1 1 0-9.6 4.58 4.58 0 0 1 3.27 1.29l1.27-1.27a6.32 6.32 0 0 0 -4.53-1.87 6.61 6.61 0 0 0 -.51 13.21h.51a5.84 5.84 0 0 0 6.17-6.07 6.09 6.09 0 0 0 -.1-1.13zm45.31 1.4a3.92 3.92 0 0 0 -7.65 1.28 2.26 2.26 0 0 0 0 .26 4.16 4.16 0 0 0 4.07 4.25h.15a4.23 4.23 0 0 0 3.54-1.88l-1.45-1a2.44 2.44 0 0 1 -2.09 1.18 2.17 2.17 0 0 1 -2.06-1.29l5.69-2.35zm-5.8 1.42a2.34 2.34 0 0 1 2.17-2.48 1.65 1.65 0 0 1 1.58.9zm-4.62 4.12h1.87v-12.5h-1.87zm-3.06-7.3h-.07a3 3 0 0 0 -2.24-1 4.26 4.26 0 0 0 0 8.51 2.9 2.9 0 0 0 2.24-1h.06v.61c0 1.63-.87 2.5-2.27 2.5a2.35 2.35 0 0 1 -2.14-1.51l-1.63.68a4 4 0 0 0 3.77 2.51c2.19 0 4-1.29 4-4.43v-7.57h-1.72zm-2.14 5.88a2.59 2.59 0 0 1 0-5.16 2.4 2.4 0 0 1 2.27 2.52v.06a2.38 2.38 0 0 1 -2.17 2.57h-.1zm24.38-11.08h-4.47v12.5h1.87v-4.74h2.61a3.89 3.89 0 1 0 .56-7.76 5.23 5.23 0 0 0 -.56 0zm0 6h-2.61v-4.26h2.65a2.15 2.15 0 0 1 0 4.29zm11.53-1.8a3.51 3.51 0 0 0 -3.34 1.91l1.66.69a1.75 1.75 0 0 1 1.7-.92 1.8 1.8 0 0 1 2 1.58v.16a4.14 4.14 0 0 0 -2-.48c-1.79 0-3.6 1-3.6 2.81a2.88 2.88 0 0 0 3 2.75h.08a2.62 2.62 0 0 0 2.4-1.2h.06v1h1.8v-4.81c0-2.19-1.66-3.46-3.79-3.46zm-.23 6.85c-.61 0-1.46-.31-1.46-1.06 0-1 1.06-1.33 2-1.33a3.38 3.38 0 0 1 1.7.42 2.26 2.26 0 0 1 -2.19 2zm10.63-6.55-2.14 5.42h-.06l-2.22-5.42h-2l3.33 7.58-1.9 4.21h2l5.07-11.79zm-16.81 8h1.87v-12.5h-1.87z" fill="#fff"/><path d="m10.44 7.54a2 2 0 0 0 -.44 1.4v22.12a2 2 0 0 0 .46 1.4l.07.07 12.37-12.38v-.29l-12.39-12.39z" fill="url(#a)"/><path d="m27 24.28-4.1-4.13v-.29l4.1-4.14h.09l4.91 2.84c1.4.79 1.4 2.09 0 2.89l-4.89 2.78z" fill="url(#b)"/><path d="m27.12 24.22-4.22-4.22-12.46 12.46a1.63 1.63 0 0 0 2.08.06l14.61-8.3" fill="url(#c)"/><path d="m27.12 15.78-14.61-8.3a1.63 1.63 0 0 0 -2.08.06l12.47 12.46z" fill="url(#d)"/><path d="m27 24.13-14.49 8.25a1.68 1.68 0 0 1 -2 0l-.07.07.07.07a1.65 1.65 0 0 0 2 0l14.61-8.3z" opacity=".2"/><path d="m10.44 32.32a2 2 0 0 1 -.46-1.4v.15a2 2 0 0 0 .46 1.4l.07-.07zm21.56-11.02-5 2.83.09.09 4.91-2.78a1.75 1.75 0 0 0 1-1.44 1.86 1.86 0 0 1 -1 1.3z" opacity=".12"/><path d="m12.51 7.62 19.49 11.08a1.86 1.86 0 0 1 1 1.3 1.75 1.75 0 0 0 -1-1.44l-19.49-11.08c-1.4-.79-2.51-.13-2.51 1.52v.1c0-1.61 1.12-2.27 2.51-1.48z" fill="#fff" opacity=".25"/></svg>