<svg viewBox="0 0 76.1 39" xmlns="http://www.w3.org/2000/svg"><path d="m38.1 39c21 0 38.1-8.7 38.1-19.5-.1-10.8-17.1-19.5-38.1-19.5-21.1 0-38.1 8.7-38.1 19.5s17 19.5 38.1 19.5zm7.1-9.6c-.6 1.5-1.7 4.6-4.2 5.9-.8.4-1.7.6-2.5.6h-.4c-7 0-13.6-1-19-2.6l-.2-.1c-.5-.2-.8-.4-.8-.7s.1-.4.3-.6l.3-.3c1.3-1.1 5.1-3.9 12.3-6.6 2.5-1 5.7-2.2 9-2.9 1.8-.4 9-1.5 5.2 7.3zm19.3-19.6c.1-.2.3-.4.6-.5.2 0 .4 0 .8.3 4.5 2.8 7.1 6.2 7.1 9.9 0 6.7-8.6 12.5-21 15-.8.2-1.3.2-1.5 0-.1-.1-.2-.3 0-.6.1-.1.2-.3.3-.5 6.7-7.9 11.9-19.6 13.3-23 .2-.2.3-.5.4-.6zm-33.5-.3c.6-1.5 1.7-4.6 4.2-5.9.8-.3 1.8-.5 2.6-.5h.4c7 0 13.6 1 19 2.6l.2.1c.5.2.8.4.8.7s-.1.4-.3.6l-.3.3c-1.3 1.1-5.1 3.8-12.2 6.6-2.5 1-5.7 2.2-9 2.9-2 .3-9.2 1.4-5.4-7.4zm-6.9-5c.8-.2 1.3-.2 1.5 0 .1.1.1.3 0 .6-.1.1-.2.3-.3.5-6.7 7.9-11.9 19.6-13.3 23-.1.2-.2.5-.3.6-.1.2-.3.4-.6.5-.2 0-.4 0-.8-.3-4.5-2.8-7.1-6.2-7.1-9.9-.1-6.7 8.6-12.5 20.9-15z" fill="#003469"/></svg>